<svg xmlns="http://www.w3.org/2000/svg" viewBox="0 0 32 32">
  <rect x="0.0" y="8.5" width="2.5" height="2.5"/>
  <rect x="2.5" y="8.5" width="2.5" height="2.5"/>
  <rect x="7.5" y="8.5" width="2.5" height="2.5"/>
  <rect x="10.0" y="8.5" width="2.5" height="2.5"/>
  <rect x="15.0" y="8.5" width="2.5" height="2.5"/>
  <rect x="17.5" y="8.5" width="2.5" height="2.5"/>
  <rect x="25.0" y="8.5" width="2.5" height="2.5"/>
  <rect x="27.5" y="8.5" width="2.5" height="2.5"/>
  <rect x="0.0" y="11" width="2.5" height="5"/>
  <rect x="2.5" y="11" width="2.5" height="5"/>
  <rect x="7.5" y="11" width="2.5" height="5"/>
  <rect x="10.0" y="11" width="2.5" height="5"/>
  <rect x="15.0" y="11" width="2.5" height="5"/>
  <rect x="17.5" y="11" width="2.5" height="5"/>
  <rect x="20.0" y="11" width="2.5" height="5"/>
  <rect x="22.5" y="13.5" width="2.5" height="2.5"/>
  <rect x="25.0" y="11" width="2.5" height="5"/>
  <rect x="27.5" y="11" width="2.5" height="5"/>
  <rect x="0.0" y="16" width="2.5" height="2.5"/>
  <rect x="2.5" y="16" width="2.5" height="5"/>
  <rect x="5.0" y="16" width="2.5" height="5"/>
  <rect x="7.5" y="16" width="2.5" height="5"/>
  <rect x="10.0" y="16" width="2.5" height="2.5"/>
  <rect x="15.0" y="16" width="2.5" height="5"/>
  <rect x="17.5" y="16" width="2.5" height="5"/>
  <rect x="22.5" y="16" width="2.5" height="2.5"/>
  <rect x="25.0" y="16" width="2.5" height="5"/>
  <rect x="27.5" y="16" width="2.5" height="5"/>
  
  <style>
    rect { fill: #000; }
    @media (prefers-color-scheme: dark) {
      rect { fill: #fff; }
    }
  </style>
</svg>
