<svg xmlns="http://www.w3.org/2000/svg" viewBox="0 0 540 60" fill="currentColor">
  <rect x="0" y="10" width="10" height="10"/>
  <rect x="10" y="10" width="10" height="10"/>
  <rect x="30" y="10" width="10" height="10"/>
  <rect x="40" y="10" width="10" height="10"/>
  <rect x="60" y="10" width="10" height="10"/>
  <rect x="70" y="10" width="10" height="10"/>
  <rect x="100" y="10" width="10" height="10"/>
  <rect x="110" y="10" width="10" height="10"/>
  <rect x="130" y="10" width="10" height="10"/>
  <rect x="140" y="10" width="10" height="10"/>
  <rect x="150" y="10" width="10" height="10"/>
  <rect x="160" y="10" width="10" height="10"/>
  <rect x="170" y="10" width="10" height="10"/>
  <rect x="190" y="10" width="10" height="10"/>
  <rect x="200" y="10" width="10" height="10"/>
  <rect x="230" y="10" width="10" height="10"/>
  <rect x="240" y="10" width="10" height="10"/>
  <rect x="260" y="10" width="10" height="10"/>
  <rect x="270" y="10" width="10" height="10"/>
  <rect x="280" y="10" width="10" height="10"/>
  <rect x="290" y="10" width="10" height="10"/>
  <rect x="310" y="10" width="10" height="10"/>
  <rect x="320" y="10" width="10" height="10"/>
  <rect x="330" y="10" width="10" height="10"/>
  <rect x="340" y="10" width="10" height="10"/>
  <rect x="380" y="10" width="10" height="10"/>
  <rect x="390" y="10" width="10" height="10"/>
  <rect x="400" y="10" width="10" height="10"/>
  <rect x="430" y="10" width="10" height="10"/>
  <rect x="440" y="10" width="10" height="10"/>
  <rect x="450" y="10" width="10" height="10"/>
  <rect x="460" y="10" width="10" height="10"/>
  <rect x="490" y="10" width="10" height="10"/>
  <rect x="500" y="10" width="10" height="10"/>
  <rect x="520" y="10" width="10" height="10"/>
  <rect x="530" y="10" width="10" height="10"/>
  <rect x="0" y="20" width="10" height="20"/>
  <rect x="10" y="20" width="10" height="20"/>
  <rect x="30" y="20" width="10" height="20"/>
  <rect x="40" y="20" width="10" height="20"/>
  <rect x="60" y="20" width="10" height="20"/>
  <rect x="70" y="20" width="10" height="20"/>
  <rect x="80" y="20" width="10" height="20"/>
  <rect x="90" y="30" width="10" height="10"/>
  <rect x="100" y="20" width="10" height="20"/>
  <rect x="110" y="20" width="10" height="20"/>
  <rect x="130" y="20" width="10" height="20"/>
  <rect x="140" y="20" width="10" height="20"/>
  <rect x="150" y="30" width="10" height="10"/>
  <rect x="160" y="30" width="10" height="10"/>
  <rect x="190" y="20" width="10" height="20"/>
  <rect x="200" y="20" width="10" height="20"/>
  <rect x="210" y="20" width="10" height="20"/>
  <rect x="220" y="30" width="10" height="10"/>
  <rect x="230" y="20" width="10" height="20"/>
  <rect x="240" y="20" width="10" height="20"/>
  <rect x="270" y="20" width="10" height="20"/>
  <rect x="280" y="20" width="10" height="20"/>
  <rect x="310" y="20" width="10" height="20"/>
  <rect x="320" y="20" width="10" height="20"/>
  <rect x="330" y="30" width="10" height="10"/>
  <rect x="340" y="20" width="10" height="20"/>
  <rect x="350" y="30" width="10" height="10"/>
  <rect x="370" y="20" width="10" height="20"/>
  <rect x="380" y="20" width="10" height="20"/>
  <rect x="390" y="20" width="10" height="10"/>
  <rect x="400" y="20" width="10" height="20"/>
  <rect x="410" y="20" width="10" height="20"/>
  <rect x="430" y="20" width="10" height="20"/>
  <rect x="440" y="20" width="10" height="20"/>
  <rect x="450" y="30" width="10" height="10"/>
  <rect x="460" y="20" width="10" height="20"/>
  <rect x="470" y="20" width="10" height="10"/>
  <rect x="490" y="20" width="10" height="10"/>
  <rect x="500" y="20" width="10" height="20"/>
  <rect x="510" y="20" width="10" height="20"/>
  <rect x="520" y="20" width="10" height="20"/>
  <rect x="530" y="20" width="10" height="10"/>
  <rect x="0" y="40" width="10" height="10"/>
  <rect x="10" y="40" width="10" height="20"/>
  <rect x="20" y="40" width="10" height="20"/>
  <rect x="30" y="40" width="10" height="20"/>
  <rect x="40" y="40" width="10" height="10"/>
  <rect x="60" y="40" width="10" height="20"/>
  <rect x="70" y="40" width="10" height="20"/>
  <rect x="90" y="40" width="10" height="10"/>
  <rect x="100" y="40" width="10" height="20"/>
  <rect x="110" y="40" width="10" height="20"/>
  <rect x="130" y="40" width="10" height="20"/>
  <rect x="140" y="40" width="10" height="20"/>
  <rect x="150" y="50" width="10" height="10"/>
  <rect x="160" y="50" width="10" height="10"/>
  <rect x="170" y="50" width="10" height="10"/>
  <rect x="190" y="40" width="10" height="20"/>
  <rect x="200" y="40" width="10" height="20"/>
  <rect x="220" y="40" width="10" height="10"/>
  <rect x="230" y="40" width="10" height="20"/>
  <rect x="240" y="40" width="10" height="20"/>
  <rect x="270" y="40" width="10" height="20"/>
  <rect x="280" y="40" width="10" height="20"/>
  <rect x="310" y="40" width="10" height="20"/>
  <rect x="320" y="40" width="10" height="20"/>
  <rect x="340" y="40" width="10" height="20"/>
  <rect x="350" y="40" width="10" height="20"/>
  <rect x="370" y="40" width="10" height="10"/>
  <rect x="380" y="40" width="10" height="20"/>
  <rect x="390" y="40" width="10" height="20"/>
  <rect x="400" y="40" width="10" height="20"/>
  <rect x="410" y="40" width="10" height="10"/>
  <rect x="430" y="40" width="10" height="20"/>
  <rect x="440" y="40" width="10" height="20"/>
  <rect x="510" y="40" width="10" height="20"/>
</svg>
