<svg xmlns="http://www.w3.org/2000/svg" viewBox="0 0 120 60" fill="currentColor">
  <rect x="0" y="10" width="10" height="10"/>
  <rect x="10" y="10" width="10" height="10"/>
  <rect x="30" y="10" width="10" height="10"/>
  <rect x="40" y="10" width="10" height="10"/>
  <rect x="60" y="10" width="10" height="10"/>
  <rect x="70" y="10" width="10" height="10"/>
  <rect x="100" y="10" width="10" height="10"/>
  <rect x="110" y="10" width="10" height="10"/>
  <rect x="0" y="20" width="10" height="20"/>
  <rect x="10" y="20" width="10" height="20"/>
  <rect x="30" y="20" width="10" height="20"/>
  <rect x="40" y="20" width="10" height="20"/>
  <rect x="60" y="20" width="10" height="20"/>
  <rect x="70" y="20" width="10" height="20"/>
  <rect x="80" y="20" width="10" height="20"/>
  <rect x="90" y="30" width="10" height="10"/>
  <rect x="100" y="20" width="10" height="20"/>
  <rect x="110" y="20" width="10" height="20"/>
  <rect x="0" y="40" width="10" height="10"/>
  <rect x="10" y="40" width="10" height="20"/>
  <rect x="20" y="40" width="10" height="20"/>
  <rect x="30" y="40" width="10" height="20"/>
  <rect x="40" y="40" width="10" height="10"/>
  <rect x="60" y="40" width="10" height="20"/>
  <rect x="70" y="40" width="10" height="20"/>
  <rect x="90" y="40" width="10" height="10"/>
  <rect x="100" y="40" width="10" height="20"/>
  <rect x="110" y="40" width="10" height="20"/>
</svg>
